<svg id="visual" viewBox="0 0 960 540" width="960" height="540" xmlns="http://www.w3.org/2000/svg" xmlns:xlink="http://www.w3.org/1999/xlink" version="1.1"><path d="M0 264L80 265L160 270L240 282L320 294L400 313L480 302L560 281L640 294L720 264L800 344L880 258L960 331L960 541L880 541L800 541L720 541L640 541L560 541L480 541L400 541L320 541L240 541L160 541L80 541L0 541Z" fill="#0066ff"></path><path d="M0 347L80 347L160 291L240 271L320 367L400 317L480 365L560 314L640 285L720 286L800 310L880 348L960 298L960 541L880 541L800 541L720 541L640 541L560 541L480 541L400 541L320 541L240 541L160 541L80 541L0 541Z" fill="#005fea"></path><path d="M0 320L80 320L160 347L240 339L320 342L400 373L480 301L560 319L640 293L720 288L800 336L880 328L960 365L960 541L880 541L800 541L720 541L640 541L560 541L480 541L400 541L320 541L240 541L160 541L80 541L0 541Z" fill="#0058d4"></path><path d="M0 398L80 382L160 377L240 359L320 380L400 381L480 381L560 400L640 328L720 375L800 322L880 375L960 335L960 541L880 541L800 541L720 541L640 541L560 541L480 541L400 541L320 541L240 541L160 541L80 541L0 541Z" fill="#0050bf"></path><path d="M0 341L80 404L160 351L240 398L320 383L400 378L480 361L560 336L640 393L720 398L800 413L880 392L960 395L960 541L880 541L800 541L720 541L640 541L560 541L480 541L400 541L320 541L240 541L160 541L80 541L0 541Z" fill="#0049ab"></path><path d="M0 404L80 408L160 407L240 422L320 376L400 389L480 407L560 379L640 383L720 423L800 410L880 367L960 399L960 541L880 541L800 541L720 541L640 541L560 541L480 541L400 541L320 541L240 541L160 541L80 541L0 541Z" fill="#004296"></path><path d="M0 441L80 400L160 394L240 414L320 403L400 426L480 388L560 433L640 388L720 400L800 447L880 429L960 408L960 541L880 541L800 541L720 541L640 541L560 541L480 541L400 541L320 541L240 541L160 541L80 541L0 541Z" fill="#003a82"></path><path d="M0 410L80 405L160 451L240 457L320 413L400 434L480 439L560 450L640 443L720 404L800 434L880 432L960 450L960 541L880 541L800 541L720 541L640 541L560 541L480 541L400 541L320 541L240 541L160 541L80 541L0 541Z" fill="#00336e"></path><path d="M0 456L80 439L160 454L240 467L320 478L400 479L480 432L560 426L640 428L720 465L800 428L880 464L960 457L960 541L880 541L800 541L720 541L640 541L560 541L480 541L400 541L320 541L240 541L160 541L80 541L0 541Z" fill="#002b5a"></path><path d="M0 475L80 453L160 484L240 494L320 451L400 492L480 492L560 455L640 490L720 482L800 473L880 469L960 460L960 541L880 541L800 541L720 541L640 541L560 541L480 541L400 541L320 541L240 541L160 541L80 541L0 541Z" fill="#002347"></path><path d="M0 490L80 483L160 513L240 485L320 504L400 503L480 502L560 508L640 480L720 474L800 489L880 490L960 507L960 541L880 541L800 541L720 541L640 541L560 541L480 541L400 541L320 541L240 541L160 541L80 541L0 541Z" fill="#001a34"></path><path d="M0 522L80 516L160 501L240 510L320 524L400 515L480 517L560 528L640 523L720 512L800 501L880 514L960 515L960 541L880 541L800 541L720 541L640 541L560 541L480 541L400 541L320 541L240 541L160 541L80 541L0 541Z" fill="#001122"></path></svg>